<?xml version="1.0" standalone="no"?>
<!DOCTYPE svg PUBLIC "-//W3C//DTD SVG 20010904//EN"
 "http://www.w3.org/TR/2001/REC-SVG-20010904/DTD/svg10.dtd">
<svg version="1.0" xmlns="http://www.w3.org/2000/svg"
 width="128.000000pt" height="128.000000pt" viewBox="0 0 128.000000 128.000000"
 preserveAspectRatio="xMidYMid meet">
<metadata>
Created by potrace 1.16, written by Peter Selinger 2001-2019
</metadata>
<g transform="translate(0.000000,128.000000) scale(0.100000,-0.100000)"
fill="#000000" stroke="none">
<path d="M0 640 l0 -640 640 0 640 0 0 640 0 640 -640 0 -640 0 0 -640z m654
504 c17 -7 22 -54 6 -54 -6 0 -10 -45 -10 -116 0 -102 2 -115 15 -104 10 8 15
31 15 69 0 48 4 61 24 80 14 14 22 30 19 41 -7 27 31 45 51 24 19 -19 5 -54
-21 -54 -36 0 -53 -30 -53 -95 0 -53 -4 -65 -25 -85 -25 -23 -25 -24 -25 -216
0 -118 4 -195 10 -199 20 -12 9 -25 -20 -25 -29 0 -40 13 -20 25 6 4 10 81 10
199 0 192 0 193 -25 216 -21 20 -25 32 -25 85 0 65 -14 89 -55 97 -26 4 -33
53 -9 62 22 8 44 -11 44 -39 0 -12 9 -30 20 -40 16 -14 20 -31 20 -75 0 -39 5
-62 15 -70 13 -11 15 2 15 104 0 71 -4 116 -10 116 -15 0 -12 47 3 53 6 3 13
6 14 6 1 1 8 -2 17 -5z m-196 -141 c5 -10 7 -23 5 -30 -2 -6 12 -24 31 -40 29
-23 36 -35 36 -63 0 -29 8 -44 40 -75 l40 -39 0 -140 0 -140 -32 -33 c-30 -31
-78 -45 -78 -23 0 6 10 10 22 10 12 0 32 10 45 22 18 17 23 32 23 75 0 53 -1
55 -57 108 -50 47 -63 54 -99 55 -28 0 -47 6 -59 20 -10 11 -32 24 -49 28 -24
6 -31 14 -31 33 0 19 5 24 25 24 17 0 26 -6 28 -20 8 -40 42 -65 91 -65 41 0
50 -5 98 -52 47 -47 53 -50 53 -29 0 16 -31 53 -106 125 -59 55 -116 103 -128
106 -14 4 -21 14 -21 30 0 20 5 25 25 25 18 0 26 -6 28 -21 2 -11 48 -65 102
-119 l100 -100 0 35 c0 26 -9 43 -37 72 -29 30 -37 45 -35 71 2 26 -5 40 -33
67 -20 19 -43 35 -52 35 -25 0 -39 30 -24 49 18 21 38 20 49 -1z m413 1 c15
-19 1 -49 -24 -49 -9 0 -30 -13 -46 -29 -23 -23 -31 -39 -31 -66 0 -29 -8 -44
-40 -75 -32 -31 -40 -46 -40 -74 l0 -36 100 100 c54 54 100 108 102 119 2 15
10 21 28 21 20 0 25 -5 25 -25 0 -17 -6 -26 -20 -28 -29 -5 -235 -212 -235
-236 0 -16 11 -9 53 32 48 47 57 52 98 52 49 0 83 25 91 65 2 14 11 20 28 20
20 0 25 -5 25 -25 0 -17 -6 -26 -20 -29 -11 -2 -33 -14 -48 -27 -20 -17 -41
-24 -71 -24 -38 0 -47 -6 -99 -58 -54 -54 -57 -60 -57 -107 0 -56 28 -95 67
-95 13 0 23 -4 23 -10 0 -21 -46 -8 -77 22 l-33 32 0 134 0 133 40 48 c29 34
40 56 40 79 0 25 9 40 35 64 20 17 34 36 32 42 -6 16 12 46 27 46 8 0 19 -7
27 -16z m-253 -691 c6 -9 12 -20 12 -25 0 -14 -27 -9 -40 7 -17 20 -54 15 -58
-7 -2 -11 8 -20 35 -28 50 -17 63 -28 63 -56 0 -28 -35 -54 -72 -54 -27 0 -68
30 -68 50 0 15 26 12 40 -6 16 -18 65 -15 65 4 0 8 -20 24 -45 35 -38 19 -45
26 -45 52 0 51 79 71 113 28z m-184 -60 c16 -43 31 -84 34 -90 2 -7 -4 -13
-13 -13 -9 0 -19 9 -22 20 -4 16 -14 20 -48 20 -34 0 -44 -4 -48 -20 -3 -11
-13 -20 -22 -20 -9 0 -15 6 -13 13 58 162 61 167 82 167 17 0 27 -14 50 -77z
m356 62 c0 -9 -9 -15 -25 -15 -24 0 -25 -2 -25 -75 0 -60 -3 -75 -15 -75 -12
0 -15 15 -15 75 l0 75 -30 0 c-20 0 -30 5 -30 15 0 12 14 15 70 15 56 0 70 -3
70 -15z m112 -48 l38 -62 0 63 c0 48 3 62 15 62 12 0 15 -17 15 -90 0 -111
-12 -116 -67 -28 l-38 62 -3 -62 c-2 -46 -7 -62 -17 -62 -12 0 -15 18 -15 90
0 79 2 90 18 90 10 0 32 -25 54 -63z"/>
<path d="M630 1115 c0 -9 5 -15 11 -13 6 2 11 8 11 13 0 5 -5 11 -11 13 -6 2
-11 -4 -11 -13z"/>
<path d="M517 1074 c-8 -8 1 -24 14 -24 5 0 9 7 9 15 0 15 -12 20 -23 9z"/>
<path d="M740 1066 c0 -9 7 -16 16 -16 17 0 14 22 -4 28 -7 2 -12 -3 -12 -12z"/>
<path d="M420 984 c0 -17 22 -14 28 4 2 7 -3 12 -12 12 -9 0 -16 -7 -16 -16z"/>
<path d="M346 902 c-3 -6 -1 -14 5 -17 15 -10 25 3 12 16 -7 7 -13 7 -17 1z"/>
<path d="M306 783 c-11 -11 -6 -23 9 -23 8 0 15 4 15 9 0 13 -16 22 -24 14z"/>
<path d="M837 994 c-8 -8 1 -24 14 -24 5 0 9 7 9 15 0 15 -12 20 -23 9z"/>
<path d="M916 903 c-11 -11 -6 -23 9 -23 8 0 15 4 15 9 0 13 -16 22 -24 14z"/>
<path d="M956 783 c-11 -11 -6 -23 9 -23 8 0 15 4 15 9 0 13 -16 22 -24 14z"/>
<path d="M371 260 c-14 -42 -15 -40 15 -40 22 0 24 3 18 23 -14 47 -21 51 -33
17z"/>
</g>
</svg>
