<?xml version="1.0" encoding="UTF-8"?>
<svg id="Layer_1" xmlns="http://www.w3.org/2000/svg" version="1.1" viewBox="0 0 2000 2000">
  <!-- Generator: Adobe Illustrator 29.7.1, SVG Export Plug-In . SVG Version: 2.1.1 Build 8)  -->
  <defs>
    <style>
      .st0 {
        fill: #154435;
      }

      .st1 {
        fill: #8b8d01;
      }

      .st2 {
        fill: #a29300;
      }

      .st3 {
        fill: #003226;
      }

      .st4 {
        fill: #41b3f9;
      }

      .st5 {
        opacity: .18;
      }

      .st6 {
        fill: #f2f8fc;
      }

      .st7 {
        fill: #266d4b;
      }

      .st8 {
        fill: #b8e6ff;
      }

      .st9 {
        fill: #26db59;
      }

      .st10 {
        font-family: MyriadPro-Regular, 'Myriad Pro';
        font-size: 12px;
      }

      .st11 {
        fill: #22c454;
      }

      .st12 {
        fill: #275648;
      }

      .st13 {
        fill: #1eaf4e;
      }

      .st14 {
        fill: #2a84a8;
      }

      .st15 {
        fill: #faa106;
      }
    </style>
  </defs>
  <rect class="st3" width="2000" height="2000"/>
  <g>
    <text class="st10" transform="translate(818.84 542.96)"><tspan x="0" y="0"> </tspan></text>
    <g>
      <path class="st4" d="M604.48,1624.48h66.16v30.78h-106.43v-200.78h40.27v170Z"/>
      <path class="st4" d="M752.33,1454.48v200.78h-40.27v-200.78h40.27Z"/>
      <path class="st4" d="M930.97,1617.01h-79.97l-13.23,38.26h-42.29l72.2-201.07h46.89l72.2,201.07h-42.57l-13.23-38.26ZM920.32,1585.65l-29.34-84.86-29.34,84.86h58.68Z"/>
      <path class="st4" d="M1201.36,1655.26h-40.27l-91.19-137.79v137.79h-40.27v-201.07h40.27l91.19,138.08v-138.08h40.27v201.07Z"/>
      <path class="st4" d="M1379.99,1617.01h-79.97l-13.23,38.26h-42.29l72.2-201.07h46.89l72.2,201.07h-42.57l-13.23-38.26ZM1369.35,1585.65l-29.34-84.86-29.34,84.86h58.68Z"/>
    </g>
    <g>
      <g>
        <path class="st14" d="M1012,742.9l59.98-59.99v-155.64l46.93-46.93c2.5,1.29,5.14,2.35,7.92,3.09,3.36.9,6.78,1.34,10.18,1.34,10.36,0,20.51-4.08,28.01-11.57,9.96-9.96,13.88-24.59,10.23-38.2s-14.36-24.32-27.96-27.96c-13.6-3.65-28.24.28-38.2,10.23-9.96,9.96-13.88,24.59-10.23,38.19.74,2.77,1.79,5.4,3.08,7.9l-53.96,53.97v155.64l-35.98,35.99v-287.04c2.68-.85,5.29-1.98,7.77-3.41,12.2-7.04,19.77-20.16,19.77-34.25s-7.58-27.2-19.77-34.25c-12.2-7.04-27.35-7.04-39.54,0-12.2,7.04-19.77,20.16-19.77,34.25s7.58,27.2,19.77,34.25c2.48,1.43,5.09,2.56,7.77,3.41v287.04l-35.98-35.99v-155.64l-53.96-53.97c1.29-2.49,2.34-5.13,3.08-7.9,3.65-13.6-.28-28.24-10.23-38.19,0,0,0,0,0,0-9.96-9.96-24.59-13.88-38.19-10.23-13.6,3.64-24.32,14.36-27.96,27.96-3.64,13.6.28,28.24,10.23,38.2,7.5,7.5,17.65,11.57,28.01,11.57,3.4,0,6.82-.44,10.18-1.34,2.77-.74,5.42-1.79,7.92-3.09l46.92,46.93v155.64l59.98,59.99v542.8l-47.1,47.1h118.19l-47.1-47.1v-542.8ZM1124.65,432.82c3.33-3.33,7.83-5.13,12.43-5.13,1.51,0,3.03.19,4.52.59,6.03,1.62,10.79,6.37,12.4,12.41,1.62,6.03-.12,12.53-4.54,16.94s-10.91,6.16-16.94,4.54c-6.03-1.62-10.79-6.37-12.4-12.41-1.62-6.03.12-12.53,4.54-16.94ZM867.48,462.17c-6.03,1.62-12.53-.12-16.94-4.54-4.42-4.42-6.16-10.91-4.54-16.94,1.62-6.04,6.37-10.79,12.41-12.41,1.49-.4,3.01-.59,4.52-.59,4.6,0,9.1,1.81,12.43,5.13h0c4.42,4.42,6.16,10.91,4.54,16.94-1.62,6.03-6.37,10.79-12.41,12.4ZM982.46,384.26c0-6.25,3.36-12.07,8.77-15.19,2.71-1.56,5.74-2.34,8.77-2.34s6.07.78,8.77,2.34c5.41,3.12,8.77,8.95,8.77,15.19s-3.36,12.07-8.77,15.19c-5.41,3.12-12.13,3.12-17.54,0-5.41-3.12-8.77-8.95-8.77-15.19Z"/>
        <path class="st14" d="M952.02,793.56l-90.51-90.51v-95.37l-69.92-69.92c1.29-2.49,2.34-5.14,3.08-7.9,3.65-13.6-.28-28.24-10.23-38.2-9.96-9.96-24.59-13.88-38.2-10.23-13.6,3.65-24.32,14.36-27.96,27.96-3.64,13.6.28,28.24,10.23,38.2,7.5,7.5,17.65,11.57,28.01,11.57,3.4,0,6.82-.44,10.18-1.34,2.77-.74,5.41-1.79,7.91-3.08l62.89,62.89v95.37l90.51,90.51v84.96l-237.26-237.27c1.29-2.49,2.34-5.13,3.08-7.9,3.65-13.6-.28-28.24-10.23-38.2h0c-9.96-9.96-24.59-13.88-38.2-10.23-13.6,3.65-24.32,14.36-27.96,27.96-3.64,13.6.28,28.24,10.23,38.2,7.5,7.5,17.65,11.57,28.01,11.57,3.4,0,6.82-.44,10.18-1.34,2.77-.74,5.41-1.79,7.91-3.09l254.23,254.24v51.06l-106.28-106.28h-120.65l-69.66-69.67c1.29-2.49,2.34-5.13,3.08-7.89,3.65-13.6-.28-28.24-10.23-38.19-9.96-9.96-24.6-13.88-38.2-10.23-13.6,3.65-24.31,14.36-27.96,27.96-3.65,13.6.28,28.24,10.23,38.2,7.5,7.5,17.65,11.57,28.01,11.57,3.4,0,6.82-.44,10.18-1.34,2.77-.74,5.42-1.79,7.92-3.09l76.68,76.69h120.65l116.22,116.22v95.79l-118.45-118.45h-120.64l-40.99-41c1.29-2.49,2.34-5.13,3.08-7.9,3.64-13.6-.28-28.24-10.23-38.2-9.96-9.96-24.59-13.88-38.2-10.23-13.6,3.65-24.32,14.36-27.96,27.96-3.65,13.6.28,28.24,10.23,38.2,7.5,7.5,17.65,11.57,28.01,11.57,3.4,0,6.82-.44,10.18-1.34,2.77-.74,5.42-1.79,7.91-3.09l48.01,48.02h120.64l128.39,128.39v106.57l-65.1,65.09h-76.22v24h86.16l79.16-79.15v-460.08ZM761.02,536.57c-6.03,1.62-12.53-.12-16.95-4.54s-6.16-10.91-4.54-16.95c1.62-6.03,6.37-10.79,12.4-12.4,1.49-.4,3.01-.59,4.52-.59,4.6,0,9.1,1.81,12.43,5.13,4.42,4.42,6.16,10.91,4.54,16.94-1.62,6.04-6.37,10.79-12.4,12.41ZM660.19,650c-6.03,1.62-12.53-.12-16.95-4.54-4.42-4.42-6.16-10.91-4.54-16.95,1.62-6.03,6.37-10.79,12.4-12.4,1.49-.4,3.01-.59,4.52-.59,4.6,0,9.1,1.81,12.43,5.13,4.42,4.42,6.16,10.91,4.54,16.94-1.62,6.04-6.37,10.79-12.4,12.41ZM600.85,796.33c-6.03,1.62-12.53-.12-16.94-4.54-4.42-4.42-6.16-10.91-4.54-16.94,1.62-6.04,6.37-10.79,12.4-12.41,1.49-.4,3.01-.59,4.52-.59,4.6,0,9.1,1.81,12.43,5.13h0c4.42,4.42,6.16,10.91,4.54,16.94-1.62,6.03-6.37,10.79-12.4,12.4ZM617.37,942.56c-6.03,1.62-12.53-.12-16.94-4.54-4.42-4.42-6.16-10.91-4.54-16.95,1.62-6.03,6.37-10.79,12.4-12.4,1.49-.4,3.01-.59,4.52-.59,4.6,0,9.1,1.81,12.43,5.13,4.42,4.42,6.16,10.91,4.54,16.95-1.62,6.03-6.37,10.79-12.4,12.4Z"/>
        <path class="st14" d="M1188.2,891.18h120.65l76.68-76.69c2.5,1.3,5.14,2.35,7.92,3.09,3.36.9,6.78,1.34,10.18,1.34,10.36,0,20.51-4.08,28.01-11.57,9.96-9.96,13.88-24.59,10.23-38.2-3.65-13.6-14.36-24.31-27.96-27.96-13.6-3.65-28.24.28-38.2,10.23-9.96,9.96-13.88,24.59-10.23,38.19.74,2.77,1.79,5.4,3.08,7.89l-69.66,69.67h-120.65l-106.28,106.28v-51.06l254.23-254.24c2.5,1.29,5.14,2.34,7.91,3.09,3.36.9,6.78,1.34,10.18,1.34,10.36,0,20.51-4.08,28.01-11.57,9.96-9.96,13.88-24.59,10.23-38.2-3.64-13.6-14.36-24.32-27.96-27.96-13.61-3.64-28.24.28-38.19,10.23-9.96,9.96-13.88,24.59-10.23,38.2.74,2.77,1.79,5.41,3.08,7.9l-237.26,237.27v-84.96l90.51-90.51v-95.37l62.89-62.89c2.5,1.29,5.14,2.34,7.91,3.08,3.36.9,6.78,1.34,10.18,1.34,10.36,0,20.51-4.08,28.01-11.57,9.96-9.96,13.88-24.59,10.24-38.2-3.65-13.6-14.36-24.31-27.96-27.96-13.61-3.65-28.24.28-38.2,10.23s-13.88,24.59-10.23,38.2c.74,2.77,1.79,5.41,3.08,7.9l-69.92,69.92v95.37l-90.51,90.51v460.08l79.16,79.15h86.16v-24h-76.22l-65.1-65.09v-106.57l128.39-128.39h120.64l48.01-48.02c2.5,1.29,5.14,2.35,7.91,3.09,3.36.9,6.78,1.34,10.18,1.34,10.36,0,20.51-4.08,28.01-11.57,9.96-9.96,13.88-24.59,10.23-38.2-3.65-13.6-14.36-24.31-27.96-27.96-13.6-3.65-28.24.28-38.2,10.23h0c-9.96,9.96-13.88,24.59-10.23,38.2.74,2.77,1.79,5.41,3.08,7.9l-40.99,41h-120.64l-118.45,118.45v-95.79l116.22-116.22ZM1391.29,766.98c3.33-3.33,7.83-5.13,12.43-5.13,1.51,0,3.03.19,4.52.59,6.04,1.62,10.79,6.37,12.41,12.41,1.62,6.03-.12,12.53-4.54,16.94-4.42,4.42-10.91,6.16-16.94,4.54-6.04-1.62-10.79-6.37-12.4-12.41-1.62-6.03.12-12.53,4.54-16.94ZM1331.95,620.65c3.33-3.33,7.83-5.13,12.43-5.13,1.51,0,3.03.19,4.52.59,6.04,1.62,10.79,6.37,12.41,12.41,1.62,6.03-.12,12.53-4.54,16.94-4.42,4.42-10.91,6.16-16.94,4.54-6.04-1.62-10.79-6.37-12.41-12.41-1.62-6.03.12-12.53,4.54-16.94ZM1231.12,507.22c3.33-3.33,7.83-5.13,12.43-5.13,1.51,0,3.03.19,4.52.59,6.04,1.62,10.79,6.37,12.41,12.4,1.62,6.04-.12,12.53-4.54,16.95-4.42,4.42-10.91,6.16-16.94,4.54-6.04-1.62-10.79-6.37-12.41-12.4-1.62-6.04.12-12.53,4.54-16.95ZM1374.77,913.21h0c4.42-4.42,10.91-6.15,16.94-4.54,6.04,1.62,10.79,6.37,12.41,12.41,1.62,6.03-.12,12.53-4.54,16.95-4.42,4.42-10.91,6.16-16.94,4.54-6.04-1.62-10.79-6.37-12.41-12.41-1.62-6.03.12-12.53,4.54-16.95Z"/>
      </g>
      <path class="st8" d="M628.34,875.98c-9.92,0-19.24-3.86-26.25-10.88l-32.92-32.92c-4.46-4.46-6.92-10.4-6.92-16.71s2.46-12.25,6.92-16.71l23.26-23.26,7.78,7.78-23.26,23.26c-2.39,2.39-3.7,5.56-3.7,8.93s1.31,6.55,3.7,8.93l32.92,32.92c4.94,4.94,11.5,7.65,18.47,7.65h.06c7-.02,13.57-2.76,18.5-7.74l240.83-242.99c10.1-10.19,10.06-26.73-.08-36.87l-81.47-81.45c-3.8-3.8-9.97-3.79-13.77,0l-29.09,29.09-7.78-7.78,29.09-29.09c8.08-8.08,21.24-8.08,29.33,0l81.47,81.45c14.42,14.41,14.47,37.92.12,52.4l-240.83,242.99c-7,7.07-16.34,10.97-26.29,10.99h-.08Z"/>
      <path class="st8" d="M1285.11,787.97c-9.48,0-18.96-3.6-26.19-10.79l-304.42-303c-7.04-7.01-10.92-16.34-10.94-26.27-.01-9.93,3.85-19.27,10.88-26.3l41.24-41.24,7.78,7.78-41.24,41.24c-4.94,4.94-7.66,11.52-7.65,18.51,0,6.99,2.74,13.56,7.7,18.49l304.42,303c10.19,10.14,26.75,10.12,36.91-.04l76.24-76.24c3.15-3.15,4.88-7.34,4.88-11.79s-1.73-8.64-4.88-11.79l-34.5-34.5,7.78-7.78,34.5,34.5c5.23,5.23,8.11,12.18,8.11,19.57s-2.88,14.34-8.11,19.57l-76.24,76.24c-7.23,7.23-16.74,10.85-26.25,10.85Z"/>
      <g>
        <polygon class="st12" points="849.5 703.02 854.1 703.17 851.41 701.11 849.5 703.02"/>
        <path class="st9" d="M878.11,631.29c6.66,6.66,10,15.4,10,24.13,0,8.74-3.34,17.47-10,24.13l-23.27,23.27c-.48.48-1.25.48-1.73,0l-46.56-46.56c-.46-.46-.46-1.22,0-1.68l23.29-23.29c8.3-8.3,19.8-11.42,30.52-9.39,3.77.71,7.43,2.06,10.83,4.05,2.47,1.45,4.8,3.23,6.91,5.34Z"/>
        <path class="st9" d="M737.13,724l48.27,48.27-25.15,25.15c-13.33,13.33-34.94,13.33-48.27,0-1.4-1.4-2.65-2.9-3.76-4.45-2.85-4.03-4.72-8.54-5.62-13.19-.41-2.14-.62-4.31-.62-6.48,0-8.74,3.33-17.48,10-24.14l25.15-25.15Z"/>
        <path class="st9" d="M808.29,658l16.78,16.78-48.42,48.42c-.71.71-1.43,1.43-2.13,2.12-.62.62-1.23,1.23-1.85,1.84-1.22,1.22-2.43,2.41-3.62,3.59-.6.58-1.18,1.17-1.76,1.74l-.06.06c-1.28,1.25-2.53,2.48-3.77,3.68-.83.81-1.65,1.61-2.46,2.38-1.62,1.56-3.19,3.08-4.74,4.54l-16.55-16.55,68.58-68.58Z"/>
        <path class="st11" d="M866.38,659.83c7.73-7.73,9.15-25.41,5.11-32.41-.26-.45-.36-.95-.3-1.48-3.4-1.99-7.06-3.33-10.83-4.05.74,8.22-1.54,19.13-7.17,24.75l-28.13,28.13,13.19,13.19,28.13-28.13Z"/>
        <path class="st11" d="M769.44,756.31l-13.19-13.19c-25.72,24.38-40.83,34.94-53.65,36.64.89,4.65,2.77,9.16,5.62,13.19,14.72,2,30.3-7.35,61.22-36.65Z"/>
        <path class="st11" d="M825.07,674.78l13.19,13.19-48.36,48.36c-.7.7-1.38,1.38-2.07,2.06-1.67,1.67-3.31,3.29-4.9,4.87-.78.76-1.54,1.51-2.29,2.25l-.31.31c-.71.69-1.4,1.38-2.1,2.05-3.07,2.98-5.98,5.8-8.79,8.45l-13.19-13.19c1.55-1.46,3.12-2.97,4.74-4.54.81-.77,1.63-1.56,2.46-2.38,1.23-1.2,2.48-2.43,3.77-3.68l.06-.06c.58-.57,1.17-1.15,1.76-1.74,1.19-1.17,2.39-2.36,3.62-3.59.62-.61,1.23-1.22,1.85-1.84.71-.69,1.42-1.4,2.13-2.12l48.42-48.42Z"/>
        <path class="st13" d="M871.2,625.94c-.06.53.04,1.04.3,1.48,4.04,6.99,2.61,24.68-5.11,32.41l-28.13,28.13,13.15,13.15,1.71,1.71c.48.48,1.25.48,1.73,0l23.27-23.27c6.66-6.66,10-15.4,10-24.13,0-8.74-3.34-17.47-10-24.13-2.12-2.12-4.44-3.9-6.91-5.34Z"/>
        <path class="st13" d="M708.22,792.96c1.11,1.56,2.36,3.05,3.76,4.45,13.33,13.33,34.94,13.33,48.27,0l25.15-25.15-2.57-2.57-13.38-13.38c-30.92,29.3-46.5,38.65-61.22,36.65Z"/>
        <path class="st13" d="M838.26,687.96l13.15,13.15-68.58,68.58-13.38-13.38c2.8-2.66,5.72-5.47,8.79-8.45.69-.68,1.39-1.36,2.1-2.05l.31-.31c.75-.73,1.51-1.48,2.29-2.25,1.59-1.58,3.23-3.2,4.9-4.87.69-.68,1.38-1.36,2.07-2.06l48.36-48.36Z"/>
        <path class="st6" d="M765.08,725.11l-41.19,41.19c-2.19,2.19-5.73,2.19-7.92,0-2.19-2.19-2.19-5.73,0-7.92l41.19-41.19c2.19-2.19,5.73-2.19,7.92,0,2.19,2.19,2.19,5.73,0,7.92Z"/>
        <path class="st6" d="M854.82,635.4l-22.8,22.8c-2.19,2.19-5.73,2.19-7.92,0s-2.19-5.73,0-7.92l22.8-22.8c2.19-2.19,5.73-2.19,7.92,0,2.19,2.19,2.19,5.73,0,7.92Z"/>
        <path class="st15" d="M785.4,772.27c-5.63,3.37-12.04,2.12-29.17-15.69-2.48-2.59-4.71-5.01-6.67-7.26-9.86-11.33-13.34-18.77-12.43-25.32,2.21-2.2,7.45-2.29,7.45-2.29,1.75,4.71,7.01,12.18,13.42,19.7,9.42,11.07,21.31,22.27,28.04,25.06,1.29,1.48.55,4.59-.64,5.79Z"/>
        <g class="st5">
          <path class="st9" d="M808.29,658l43.12,43.12-45.67,45.67c-4.86-2.18-10.23-5.98-15.66-10.64-4.51-3.86-9.07-8.32-13.42-12.96-5.69-6.05-11.03-12.39-15.45-18.11l47.08-47.08Z"/>
        </g>
        <path class="st7" d="M809.24,743.28l-6.24,6.24c-4.9-2.41-10.01-6.41-15.18-11.13-4.41-4.03-8.89-8.57-13.3-13.07l-.07-.07c-5.45-5.55-13.22-13.47-17.46-15.94l5.84-5.84c4.65,3.18,10.2,8.7,17.43,16.07l.03.03c3.94,4.01,8.63,8.79,13.34,13.04,5.58,5.02,11.18,9.3,15.61,10.69Z"/>
        <path class="st7" d="M808.29,658l43.12,43.12-10.62,10.62c-3.1-3.25-7.56-8.25-12.63-13.67-4.11-4.39-8.61-9.04-13.11-13.26-7.07-6.6-14.13-12.14-19.69-13.87l12.94-12.94Z"/>
        <path class="st0" d="M808.29,658l43.12,43.12-1.91,1.91c-3.99-3.54-8.68-8-13.56-12.74-4.39-4.29-8.95-8.81-13.27-13.1-6.7-6.66-12.84-12.77-16.96-16.6l2.59-2.59Z"/>
        <g>
          <path class="st12" d="M806.55,656.26c-.21-.21-.31-.49-.33-.76l-.51,5.09,2.59-2.59-1.74-1.74Z"/>
          <path class="st12" d="M806.27,655.06h-.01s-.01.11-.01.11c0-.04.01-.08.02-.11Z"/>
        </g>
        <path class="st2" d="M758,741.41c-2.46,2.31-5.66,5.33-8.44,7.91,1.96,2.25,4.18,4.66,6.67,7.26,2.25,2.34,4.31,4.38,6.21,6.18,2.64-2.47,5.74-5.37,8.33-7.81-4.31-4.1-8.77-8.82-12.77-13.53Z"/>
        <path class="st1" d="M786.04,766.48c-3.87-1.6-9.44-5.99-15.27-11.53-2.59,2.44-5.69,5.34-8.33,7.81,12.59,11.88,18.07,12.45,22.96,9.52,1.19-1.21,1.93-4.32.64-5.79Z"/>
      </g>
      <g>
        <polygon class="st12" points="1143.71 695.86 1143.56 700.47 1145.62 697.77 1143.71 695.86"/>
        <path class="st9" d="M1215.44,724.48c-6.66,6.66-15.4,10-24.13,10-8.74,0-17.47-3.34-24.13-10l-23.27-23.27c-.48-.48-.48-1.25,0-1.73l46.56-46.56c.46-.46,1.22-.46,1.68,0l23.29,23.29c8.3,8.3,11.42,19.8,9.39,30.52-.71,3.77-2.06,7.43-4.05,10.83-1.45,2.47-3.23,4.8-5.34,6.91Z"/>
        <path class="st9" d="M1122.73,583.5l-48.27,48.27-25.15-25.15c-13.33-13.33-13.33-34.94,0-48.27,1.4-1.4,2.9-2.65,4.45-3.76,4.03-2.85,8.54-4.72,13.19-5.62,2.14-.41,4.31-.62,6.48-.62,8.74,0,17.48,3.33,24.14,10l25.15,25.15Z"/>
        <path class="st9" d="M1188.73,654.66l-16.78,16.78-48.42-48.42c-.71-.71-1.43-1.43-2.12-2.13-.62-.62-1.23-1.23-1.84-1.85-1.22-1.22-2.41-2.43-3.59-3.62-.58-.6-1.17-1.18-1.74-1.76l-.06-.06c-1.25-1.28-2.48-2.53-3.68-3.77-.81-.83-1.61-1.65-2.38-2.46-1.56-1.62-3.08-3.19-4.54-4.74l16.55-16.55,68.58,68.58Z"/>
        <path class="st11" d="M1186.9,712.75c7.73,7.73,25.41,9.15,32.41,5.11.45-.26.95-.36,1.48-.3,1.99-3.4,3.33-7.06,4.05-10.83-8.22.74-19.13-1.54-24.75-7.17l-28.13-28.13-13.19,13.19,28.13,28.13Z"/>
        <path class="st11" d="M1090.42,615.81l13.19-13.19c-24.38-25.72-34.94-40.83-36.64-53.65-4.65.89-9.16,2.77-13.19,5.62-2,14.72,7.35,30.3,36.65,61.22Z"/>
        <path class="st11" d="M1171.95,671.44l-13.19,13.19-48.36-48.36c-.7-.7-1.38-1.38-2.06-2.07-1.67-1.67-3.29-3.31-4.87-4.9-.76-.78-1.51-1.54-2.25-2.29l-.31-.31c-.69-.71-1.38-1.4-2.05-2.1-2.98-3.07-5.8-5.98-8.45-8.79l13.19-13.19c1.46,1.55,2.97,3.12,4.54,4.74.77.81,1.56,1.63,2.38,2.46,1.2,1.23,2.43,2.48,3.68,3.77l.06.06c.57.58,1.15,1.17,1.74,1.76,1.17,1.19,2.36,2.39,3.59,3.62.61.62,1.22,1.23,1.84,1.85.69.71,1.4,1.42,2.12,2.13l48.42,48.42Z"/>
        <path class="st13" d="M1220.79,717.56c-.53-.06-1.04.04-1.48.3-6.99,4.04-24.68,2.61-32.41-5.11l-28.13-28.13-13.15,13.15-1.71,1.71c-.48.48-.48,1.25,0,1.73l23.27,23.27c6.66,6.66,15.4,10,24.13,10,8.74,0,17.47-3.34,24.13-10,2.12-2.12,3.9-4.44,5.34-6.91Z"/>
        <path class="st13" d="M1053.77,554.59c-1.56,1.11-3.05,2.36-4.45,3.76-13.33,13.33-13.33,34.94,0,48.27l25.15,25.15,2.57-2.57,13.38-13.38c-29.3-30.92-38.65-46.5-36.65-61.22Z"/>
        <path class="st13" d="M1158.77,684.62l-13.15,13.15-68.58-68.58,13.38-13.38c2.66,2.8,5.47,5.72,8.45,8.79.68.69,1.36,1.39,2.05,2.1l.31.31c.73.75,1.48,1.51,2.25,2.29,1.58,1.59,3.2,3.23,4.87,4.9.68.69,1.36,1.38,2.06,2.07l48.36,48.36Z"/>
        <path class="st6" d="M1121.62,611.44l-41.19-41.19c-2.19-2.19-2.19-5.73,0-7.92,2.19-2.19,5.73-2.19,7.92,0l41.19,41.19c2.19,2.19,2.19,5.73,0,7.92-2.19,2.19-5.73,2.19-7.92,0Z"/>
        <path class="st6" d="M1211.33,701.19l-22.8-22.8c-2.19-2.19-2.19-5.73,0-7.92s5.73-2.19,7.92,0l22.8,22.8c2.19,2.19,2.19,5.73,0,7.92-2.19,2.19-5.73,2.19-7.92,0Z"/>
        <path class="st15" d="M1074.46,631.76c-3.37-5.63-2.12-12.04,15.69-29.17,2.59-2.48,5.01-4.71,7.26-6.67,11.33-9.86,18.77-13.34,25.32-12.43,2.2,2.21,2.29,7.45,2.29,7.45-4.71,1.75-12.18,7.01-19.7,13.42-11.07,9.42-22.27,21.31-25.06,28.04-1.48,1.29-4.59.55-5.79-.64Z"/>
        <g class="st5">
          <path class="st9" d="M1188.73,654.66l-43.12,43.12-45.67-45.67c2.18-4.86,5.98-10.23,10.64-15.66,3.86-4.51,8.32-9.07,12.96-13.42,6.05-5.69,12.39-11.03,18.11-15.45l47.08,47.08Z"/>
        </g>
        <path class="st7" d="M1103.45,655.61l-6.24-6.24c2.41-4.9,6.41-10.01,11.13-15.18,4.03-4.41,8.57-8.89,13.07-13.3l.07-.07c5.55-5.45,13.47-13.22,15.94-17.46l5.84,5.84c-3.18,4.65-8.7,10.2-16.07,17.43l-.03.03c-4.01,3.94-8.79,8.63-13.04,13.34-5.02,5.58-9.3,11.18-10.69,15.61Z"/>
        <path class="st7" d="M1188.73,654.66l-43.12,43.12-10.62-10.62c3.25-3.1,8.25-7.56,13.67-12.63,4.39-4.11,9.04-8.61,13.26-13.11,6.6-7.07,12.14-14.13,13.87-19.69l12.94,12.94Z"/>
        <path class="st0" d="M1188.73,654.66l-43.12,43.12-1.91-1.91c3.54-3.99,8-8.68,12.74-13.56,4.29-4.39,8.81-8.95,13.1-13.27,6.66-6.7,12.77-12.84,16.6-16.96l2.59,2.59Z"/>
        <g>
          <path class="st12" d="M1190.47,652.92c.21-.21.49-.31.76-.33l-5.09-.51,2.59,2.59,1.74-1.74Z"/>
          <path class="st12" d="M1191.67,652.64h0s-.12-.02-.12-.02c.04,0,.08.01.11.02Z"/>
        </g>
        <path class="st2" d="M1105.32,604.36c-2.31-2.46-5.33-5.66-7.91-8.44-2.25,1.96-4.66,4.18-7.26,6.67-2.34,2.25-4.38,4.31-6.18,6.21,2.47,2.64,5.37,5.74,7.81,8.33,4.1-4.31,8.82-8.77,13.53-12.77Z"/>
        <path class="st1" d="M1080.25,632.4c1.6-3.87,5.99-9.44,11.53-15.27-2.44-2.59-5.34-5.69-7.81-8.33-11.88,12.59-12.45,18.07-9.52,22.96,1.21,1.19,4.32,1.93,5.79.64Z"/>
      </g>
    </g>
  </g>
</svg>