<?xml version="1.0" encoding="UTF-8"?>
<svg id="Layer_1" xmlns="http://www.w3.org/2000/svg" version="1.1" viewBox="0 0 2000 2000">
  <!-- Generator: Adobe Illustrator 29.7.1, SVG Export Plug-In . SVG Version: 2.1.1 Build 8)  -->
  <defs>
    <style>
      .st0 {
        fill: #003226;
      }

      .st1 {
        font-family: MyriadPro-Regular, 'Myriad Pro';
        font-size: 12px;
      }

      .st2 {
        fill: #65b481;
      }
    </style>
  </defs>
  <rect class="st0" width="2000" height="2000"/>
  <text class="st1" transform="translate(818.84 542.96)"><tspan x="0" y="0"> </tspan></text>
  <g>
    <g>
      <path class="st2" d="M1012,741.89l59.98-59.99v-155.64l46.93-46.93c2.5,1.29,5.14,2.35,7.92,3.09,3.36.9,6.78,1.34,10.18,1.34,10.36,0,20.51-4.08,28.01-11.57,9.96-9.96,13.88-24.59,10.23-38.2s-14.36-24.32-27.96-27.96c-13.6-3.65-28.24.28-38.2,10.23-9.96,9.96-13.88,24.59-10.23,38.19.74,2.77,1.79,5.4,3.08,7.9l-53.96,53.97v155.64l-35.98,35.99v-287.04c2.68-.85,5.29-1.98,7.77-3.41,12.2-7.04,19.77-20.16,19.77-34.25s-7.58-27.2-19.77-34.25c-12.2-7.04-27.35-7.04-39.54,0-12.2,7.04-19.77,20.16-19.77,34.25s7.58,27.2,19.77,34.25c2.48,1.43,5.09,2.56,7.77,3.41v287.04l-35.98-35.99v-155.64l-53.96-53.97c1.29-2.49,2.34-5.13,3.08-7.9,3.65-13.6-.28-28.24-10.23-38.19,0,0,0,0,0,0-9.96-9.96-24.59-13.88-38.19-10.23-13.6,3.64-24.32,14.36-27.96,27.96-3.64,13.6.28,28.24,10.23,38.2,7.5,7.5,17.65,11.57,28.01,11.57,3.4,0,6.82-.44,10.18-1.34,2.77-.74,5.42-1.79,7.92-3.09l46.92,46.93v155.64l59.98,59.99v542.8l-47.1,47.1h118.19l-47.1-47.1v-542.8ZM1124.65,431.82c3.33-3.33,7.83-5.13,12.43-5.13,1.51,0,3.03.19,4.52.59,6.03,1.62,10.79,6.37,12.4,12.41,1.62,6.03-.12,12.53-4.54,16.94s-10.91,6.16-16.94,4.54c-6.03-1.62-10.79-6.37-12.4-12.41-1.62-6.03.12-12.53,4.54-16.94ZM867.48,461.16c-6.03,1.62-12.53-.12-16.94-4.54-4.42-4.42-6.16-10.91-4.54-16.94,1.62-6.04,6.37-10.79,12.41-12.41,1.49-.4,3.01-.59,4.52-.59,4.6,0,9.1,1.81,12.43,5.13h0c4.42,4.42,6.16,10.91,4.54,16.94-1.62,6.03-6.37,10.79-12.41,12.4ZM982.46,383.26c0-6.25,3.36-12.07,8.77-15.19,2.71-1.56,5.74-2.34,8.77-2.34s6.07.78,8.77,2.34c5.41,3.12,8.77,8.95,8.77,15.19s-3.36,12.07-8.77,15.19c-5.41,3.12-12.13,3.12-17.54,0-5.41-3.12-8.77-8.95-8.77-15.19Z"/>
      <path class="st2" d="M952.02,792.55l-90.51-90.51v-95.37l-69.92-69.92c1.29-2.49,2.34-5.14,3.08-7.9,3.65-13.6-.28-28.24-10.23-38.2-9.96-9.96-24.59-13.88-38.2-10.23-13.6,3.65-24.32,14.36-27.96,27.96-3.64,13.6.28,28.24,10.23,38.2,7.5,7.5,17.65,11.57,28.01,11.57,3.4,0,6.82-.44,10.18-1.34,2.77-.74,5.41-1.79,7.91-3.08l62.89,62.89v95.37l90.51,90.51v84.96l-237.26-237.27c1.29-2.49,2.34-5.13,3.08-7.9,3.65-13.6-.28-28.24-10.23-38.2h0c-9.96-9.96-24.59-13.88-38.2-10.23-13.6,3.65-24.32,14.36-27.96,27.96-3.64,13.6.28,28.24,10.23,38.2,7.5,7.5,17.65,11.57,28.01,11.57,3.4,0,6.82-.44,10.18-1.34,2.77-.74,5.41-1.79,7.91-3.09l254.23,254.24v51.06l-106.28-106.28h-120.65l-69.66-69.67c1.29-2.49,2.34-5.13,3.08-7.89,3.65-13.6-.28-28.24-10.23-38.19-9.96-9.96-24.6-13.88-38.2-10.23-13.6,3.65-24.31,14.36-27.96,27.96-3.65,13.6.28,28.24,10.23,38.2,7.5,7.5,17.65,11.57,28.01,11.57,3.4,0,6.82-.44,10.18-1.34,2.77-.74,5.42-1.79,7.92-3.09l76.68,76.69h120.65l116.22,116.22v95.79l-118.45-118.45h-120.64l-40.99-41c1.29-2.49,2.34-5.13,3.08-7.9,3.64-13.6-.28-28.24-10.23-38.2-9.96-9.96-24.59-13.88-38.2-10.23-13.6,3.65-24.32,14.36-27.96,27.96-3.65,13.6.28,28.24,10.23,38.2,7.5,7.5,17.65,11.57,28.01,11.57,3.4,0,6.82-.44,10.18-1.34,2.77-.74,5.42-1.79,7.91-3.09l48.01,48.02h120.64l128.39,128.39v106.57l-65.1,65.09h-76.22v24h86.16l79.16-79.15v-460.08ZM761.02,535.56c-6.03,1.62-12.53-.12-16.95-4.54s-6.16-10.91-4.54-16.95c1.62-6.03,6.37-10.79,12.4-12.4,1.49-.4,3.01-.59,4.52-.59,4.6,0,9.1,1.81,12.43,5.13,4.42,4.42,6.16,10.91,4.54,16.94-1.62,6.04-6.37,10.79-12.4,12.41ZM660.19,649c-6.03,1.62-12.53-.12-16.95-4.54-4.42-4.42-6.16-10.91-4.54-16.95,1.62-6.03,6.37-10.79,12.4-12.4,1.49-.4,3.01-.59,4.52-.59,4.6,0,9.1,1.81,12.43,5.13,4.42,4.42,6.16,10.91,4.54,16.94-1.62,6.04-6.37,10.79-12.4,12.41ZM600.85,795.32c-6.03,1.62-12.53-.12-16.94-4.54-4.42-4.42-6.16-10.91-4.54-16.94,1.62-6.04,6.37-10.79,12.4-12.41,1.49-.4,3.01-.59,4.52-.59,4.6,0,9.1,1.81,12.43,5.13h0c4.42,4.42,6.16,10.91,4.54,16.94-1.62,6.03-6.37,10.79-12.4,12.4ZM617.37,941.55c-6.03,1.62-12.53-.12-16.94-4.54-4.42-4.42-6.16-10.91-4.54-16.95,1.62-6.03,6.37-10.79,12.4-12.4,1.49-.4,3.01-.59,4.52-.59,4.6,0,9.1,1.81,12.43,5.13,4.42,4.42,6.16,10.91,4.54,16.95-1.62,6.03-6.37,10.79-12.4,12.4Z"/>
      <path class="st2" d="M1188.2,890.18h120.65l76.68-76.69c2.5,1.3,5.14,2.35,7.92,3.09,3.36.9,6.78,1.34,10.18,1.34,10.36,0,20.51-4.08,28.01-11.57,9.96-9.96,13.88-24.59,10.23-38.2-3.65-13.6-14.36-24.31-27.96-27.96-13.6-3.65-28.24.28-38.2,10.23-9.96,9.96-13.88,24.59-10.23,38.19.74,2.77,1.79,5.4,3.08,7.89l-69.66,69.67h-120.65l-106.28,106.28v-51.06l254.23-254.24c2.5,1.29,5.14,2.34,7.91,3.09,3.36.9,6.78,1.34,10.18,1.34,10.36,0,20.51-4.08,28.01-11.57,9.96-9.96,13.88-24.59,10.23-38.2-3.64-13.6-14.36-24.32-27.96-27.96-13.61-3.64-28.24.28-38.19,10.23-9.96,9.96-13.88,24.59-10.23,38.2.74,2.77,1.79,5.41,3.08,7.9l-237.26,237.27v-84.96l90.51-90.51v-95.37l62.89-62.89c2.5,1.29,5.14,2.34,7.91,3.08,3.36.9,6.78,1.34,10.18,1.34,10.36,0,20.51-4.08,28.01-11.57,9.96-9.96,13.88-24.59,10.24-38.2-3.65-13.6-14.36-24.31-27.96-27.96-13.61-3.65-28.24.28-38.2,10.23s-13.88,24.59-10.23,38.2c.74,2.77,1.79,5.41,3.08,7.9l-69.92,69.92v95.37l-90.51,90.51v460.08l79.16,79.15h86.16v-24h-76.22l-65.1-65.09v-106.57l128.39-128.39h120.64l48.01-48.02c2.5,1.29,5.14,2.35,7.91,3.09,3.36.9,6.78,1.34,10.18,1.34,10.36,0,20.51-4.08,28.01-11.57,9.96-9.96,13.88-24.59,10.23-38.2-3.65-13.6-14.36-24.31-27.96-27.96-13.6-3.65-28.24.28-38.2,10.23h0c-9.96,9.96-13.88,24.59-10.23,38.2.74,2.77,1.79,5.41,3.08,7.9l-40.99,41h-120.64l-118.45,118.45v-95.79l116.22-116.22ZM1391.29,765.97c3.33-3.33,7.83-5.13,12.43-5.13,1.51,0,3.03.19,4.52.59,6.04,1.62,10.79,6.37,12.41,12.41,1.62,6.03-.12,12.53-4.54,16.94-4.42,4.42-10.91,6.16-16.94,4.54-6.04-1.62-10.79-6.37-12.4-12.41-1.62-6.03.12-12.53,4.54-16.94ZM1331.95,619.65c3.33-3.33,7.83-5.13,12.43-5.13,1.51,0,3.03.19,4.52.59,6.04,1.62,10.79,6.37,12.41,12.41,1.62,6.03-.12,12.53-4.54,16.94-4.42,4.42-10.91,6.16-16.94,4.54-6.04-1.62-10.79-6.37-12.41-12.41-1.62-6.03.12-12.53,4.54-16.94ZM1231.12,506.21c3.33-3.33,7.83-5.13,12.43-5.13,1.51,0,3.03.19,4.52.59,6.04,1.62,10.79,6.37,12.41,12.4,1.62,6.04-.12,12.53-4.54,16.95-4.42,4.42-10.91,6.16-16.94,4.54-6.04-1.62-10.79-6.37-12.41-12.4-1.62-6.04.12-12.53,4.54-16.95ZM1374.77,912.2h0c4.42-4.42,10.91-6.15,16.94-4.54,6.04,1.62,10.79,6.37,12.41,12.41,1.62,6.03-.12,12.53-4.54,16.95-4.42,4.42-10.91,6.16-16.94,4.54-6.04-1.62-10.79-6.37-12.41-12.41-1.62-6.03.12-12.53,4.54-16.95Z"/>
    </g>
    <g>
      <path class="st2" d="M713.35,1616h-79.97l-13.23,38.26h-42.29l72.2-201.07h46.89l72.2,201.07h-42.57l-13.23-38.26ZM702.71,1584.64l-29.34-84.86-29.34,84.86h58.68Z"/>
      <path class="st2" d="M865.38,1649.08c-11.22-4.79-20.09-11.7-26.61-20.71-6.52-9.01-9.88-19.66-10.07-31.93h43.15c.58,8.44,3.5,15.15,8.77,20.14,5.27,4.99,12.51,7.48,21.72,7.48s16.78-2.3,22.15-6.9c5.37-4.6,8.05-10.74,8.05-18.41,0-5.94-1.82-10.83-5.47-14.67-3.65-3.83-8.2-6.85-13.66-9.06-5.47-2.2-12.99-4.65-22.58-7.33-13.04-3.83-23.64-7.62-31.79-11.36-8.15-3.74-15.15-9.39-21-16.97-5.85-7.57-8.77-17.69-8.77-30.35,0-11.89,2.97-22.24,8.92-31.07,5.94-8.82,14.28-15.58,25.03-20.28,10.74-4.7,23.01-7.05,36.82-7.05,20.71,0,37.54,5.03,50.48,15.1,12.94,10.07,20.09,24.12,21.43,42.14h-44.3c-.39-7.48-3.31-13.47-8.77-17.98-5.47-4.5-12.71-6.76-21.72-6.76-7.87,0-14.14,2.06-18.84,6.18-4.7,4.13-7.05,10.21-7.05,18.27,0,5.37,1.77,9.83,5.32,13.38,3.55,3.55,7.96,6.43,13.23,8.63,5.27,2.21,12.7,4.75,22.29,7.62,13.04,3.84,23.68,7.67,31.93,11.51,8.24,3.84,15.34,9.59,21.29,17.26,5.94,7.67,8.92,17.74,8.92,30.2,0,10.74-2.78,20.71-8.34,29.92-5.56,9.21-13.71,16.54-24.45,22.01-10.74,5.47-23.49,8.2-38.26,8.2-14,0-26.61-2.4-37.83-7.19Z"/>
      <path class="st2" d="M1183.38,1453.47v31.64h-53.5v169.14h-40.27v-169.14h-53.5v-31.64h147.28Z"/>
      <path class="st2" d="M1422.13,1654.26h-40.27l-91.19-137.79v137.79h-40.27v-201.07h40.27l91.19,138.08v-138.08h40.27v201.07Z"/>
    </g>
  </g>
</svg>